<svg xmlns="http://www.w3.org/2000/svg" style="display:none">
  <symbol id="icon-pump" viewBox="0 0 24 24">
    <path fill="currentColor" d="M4 3h9a1 1 0 0 1 1 1v16a1 1 0 0 1-1 1H4a1 1 0 0 1-1-1V4a1 1 0 0 1 1-1Zm2 3h5v3H6V6Zm0 5h5v7H6v-7Zm12-7a1 1 0 0 0-1 1v4a2 2 0 1 0 2 0V8h1v7a1 1 0 0 1-1 1h-1v2h1a3 3 0 0 0 3-3V7a2 2 0 0 0-2-2h-2Z"/>
  </symbol>
  <symbol id="icon-leaf" viewBox="0 0 24 24">
    <path fill="currentColor" d="M20 3S9 4 6 7s-4 8 1 11c3 2 7 1 9-1 4-3 4-11 4-14Zm-5.5 6.5L9 15l-2-2 5.5-5.5L15 9.5Z"/>
  </symbol>
</svg>

